<?xml version="1.0" encoding="UTF-8"?>
<svg version="1.1" xmlns="http://www.w3.org/2000/svg" width="1024" height="1024">
<path d="M0,0 L6,0 L6,1 L9,1 L9,2 L10,2 L10,3 L12,3 L12,4 L13,4 L13,5 L14,5 L14,6 L15,6 L15,7 L16,7 L16,8 L17,8 L17,9 L18,9 L18,10 L19,10 L19,11 L20,11 L20,12 L21,12 L21,13 L22,13 L22,14 L24,14 L24,16 L26,16 L26,18 L27,18 L27,19 L29,19 L29,21 L30,21 L30,22 L32,22 L32,23 L33,23 L33,24 L34,24 L34,26 L35,26 L35,27 L37,27 L37,28 L38,28 L38,30 L40,30 L40,31 L41,31 L41,32 L42,32 L42,33 L43,33 L43,34 L44,34 L44,35 L45,35 L45,36 L46,36 L46,37 L47,37 L47,38 L48,38 L48,39 L49,39 L49,40 L50,40 L50,41 L51,41 L51,42 L52,42 L52,43 L53,43 L53,44 L54,44 L54,45 L55,45 L55,46 L56,46 L56,47 L57,47 L57,48 L58,48 L58,49 L59,49 L59,50 L60,50 L60,51 L61,51 L61,52 L62,52 L62,53 L63,53 L63,54 L64,54 L64,55 L65,55 L65,56 L66,56 L66,57 L67,57 L67,58 L68,58 L68,59 L69,59 L69,60 L70,60 L70,61 L71,61 L71,62 L72,62 L72,63 L73,63 L73,64 L74,64 L74,65 L75,65 L75,68 L76,68 L76,71 L75,71 L75,72 L74,72 L74,74 L72,74 L72,75 L55,75 L55,76 L45,76 L45,77 L38,77 L38,78 L32,78 L32,79 L27,79 L27,80 L23,80 L23,81 L20,81 L20,82 L17,82 L17,83 L14,83 L14,84 L11,84 L11,85 L9,85 L9,86 L7,86 L7,87 L4,87 L4,88 L2,88 L2,89 L0,89 L0,90 L-2,90 L-2,91 L-4,91 L-4,92 L-6,92 L-6,93 L-8,93 L-8,94 L-9,94 L-9,95 L-11,95 L-11,96 L-13,96 L-13,97 L-14,97 L-14,98 L-16,98 L-16,99 L-17,99 L-17,100 L-18,100 L-18,101 L-20,101 L-20,102 L-21,102 L-21,103 L-23,103 L-23,104 L-24,104 L-24,105 L-25,105 L-25,106 L-26,106 L-26,107 L-27,107 L-27,108 L-28,108 L-28,109 L-30,109 L-30,110 L-31,110 L-31,111 L-32,111 L-32,112 L-33,112 L-33,113 L-34,113 L-34,114 L-35,114 L-35,115 L-36,115 L-36,116 L-37,116 L-37,117 L-38,117 L-38,118 L-39,118 L-39,119 L-40,119 L-40,120 L-41,120 L-41,121 L-42,121 L-42,122 L-43,122 L-43,124 L-44,124 L-44,125 L-45,125 L-45,126 L-46,126 L-46,127 L-47,127 L-47,128 L-48,128 L-48,130 L-49,130 L-49,131 L-50,131 L-50,132 L-51,132 L-51,134 L-52,134 L-52,135 L-53,135 L-53,137 L-54,137 L-54,138 L-55,138 L-55,140 L-56,140 L-56,141 L-57,141 L-57,143 L-58,143 L-58,144 L-59,144 L-59,146 L-60,146 L-60,148 L-61,148 L-61,150 L-62,150 L-62,151 L-63,151 L-63,153 L-64,153 L-64,155 L-65,155 L-65,158 L-66,158 L-66,160 L-67,160 L-67,162 L-68,162 L-68,165 L-69,165 L-69,168 L-70,168 L-70,170 L-71,170 L-71,174 L-72,174 L-72,177 L-73,177 L-73,181 L-74,181 L-74,185 L-75,185 L-75,190 L-76,190 L-76,197 L-77,197 L-77,207 L-78,207 L-78,222 L-77,222 L-77,223 L-78,223 L-78,224 L-77,224 L-77,235 L-76,235 L-76,242 L-75,242 L-75,246 L-74,246 L-74,251 L-73,251 L-73,255 L-72,255 L-72,258 L-71,258 L-71,262 L-70,262 L-70,264 L-69,264 L-69,267 L-68,267 L-68,270 L-67,270 L-67,272 L-66,272 L-66,275 L-65,275 L-65,277 L-64,277 L-64,279 L-63,279 L-63,281 L-62,281 L-62,283 L-61,283 L-61,285 L-60,285 L-60,287 L-59,287 L-59,289 L-58,289 L-58,291 L-57,291 L-57,292 L-56,292 L-56,294 L-55,294 L-55,296 L-54,296 L-54,297 L-53,297 L-53,299 L-52,299 L-52,300 L-51,300 L-51,301 L-50,301 L-50,303 L-49,303 L-49,304 L-48,304 L-48,306 L-47,306 L-47,307 L-46,307 L-46,308 L-45,308 L-45,309 L-44,309 L-44,310 L-43,310 L-43,312 L-42,312 L-42,313 L-41,313 L-41,314 L-40,314 L-40,315 L-39,315 L-39,316 L-38,316 L-38,317 L-37,317 L-37,318 L-36,318 L-36,319 L-35,319 L-35,320 L-34,320 L-34,321 L-33,321 L-33,322 L-32,322 L-32,323 L-31,323 L-31,324 L-30,324 L-30,325 L-29,325 L-29,326 L-28,326 L-28,327 L-27,327 L-27,328 L-26,328 L-26,329 L-24,329 L-24,330 L-23,330 L-23,331 L-22,331 L-22,332 L-21,332 L-21,333 L-20,333 L-20,334 L-18,334 L-18,335 L-17,335 L-17,336 L-15,336 L-15,337 L-14,337 L-14,338 L-13,338 L-13,339 L-11,339 L-11,340 L-9,340 L-9,341 L-8,341 L-8,342 L-6,342 L-6,343 L-5,343 L-5,344 L-3,344 L-3,345 L-1,345 L-1,346 L1,346 L1,347 L3,347 L3,348 L4,348 L4,349 L7,349 L7,350 L9,350 L9,351 L11,351 L11,352 L13,352 L13,353 L16,353 L16,354 L18,354 L18,355 L21,355 L21,356 L24,356 L24,357 L27,357 L27,358 L31,358 L31,359 L35,359 L35,360 L40,360 L40,361 L45,361 L45,362 L52,362 L52,363 L61,363 L61,364 L78,364 L78,363 L90,363 L90,362 L96,362 L96,361 L102,361 L102,360 L106,360 L106,359 L110,359 L110,358 L113,358 L113,357 L117,357 L117,356 L119,356 L119,355 L122,355 L122,354 L125,354 L125,353 L128,353 L128,352 L130,352 L130,351 L132,351 L132,350 L135,350 L135,349 L137,349 L137,348 L139,348 L139,347 L141,347 L141,346 L142,346 L142,345 L144,345 L144,344 L146,344 L146,343 L148,343 L148,342 L150,342 L150,341 L151,341 L151,340 L153,340 L153,339 L154,339 L154,338 L156,338 L156,337 L157,337 L157,336 L159,336 L159,335 L160,335 L160,334 L161,334 L161,333 L163,333 L163,332 L164,332 L164,331 L165,331 L165,330 L166,330 L166,329 L167,329 L167,328 L169,328 L169,327 L170,327 L170,326 L171,326 L171,325 L172,325 L172,324 L173,324 L173,323 L174,323 L174,322 L175,322 L175,321 L176,321 L176,320 L177,320 L177,319 L178,319 L178,318 L179,318 L179,317 L180,317 L180,316 L181,316 L181,315 L182,315 L182,314 L183,314 L183,313 L184,313 L184,312 L185,312 L185,310 L186,310 L186,309 L187,309 L187,308 L188,308 L188,307 L189,307 L189,305 L190,305 L190,304 L191,304 L191,303 L192,303 L192,301 L193,301 L193,300 L194,300 L194,299 L195,299 L195,297 L196,297 L196,296 L197,296 L197,294 L198,294 L198,292 L199,292 L199,291 L200,291 L200,289 L201,289 L201,287 L202,287 L202,285 L203,285 L203,283 L204,283 L204,281 L205,281 L205,279 L206,279 L206,277 L207,277 L207,275 L208,275 L208,272 L209,272 L209,270 L210,270 L210,267 L211,267 L211,264 L212,264 L212,260 L213,260 L213,257 L214,257 L214,253 L215,253 L215,249 L216,249 L216,244 L217,244 L217,237 L218,237 L218,228 L219,228 L219,209 L218,209 L218,200 L217,200 L217,194 L216,194 L216,188 L215,188 L215,184 L214,184 L214,181 L213,181 L213,177 L212,177 L212,174 L211,174 L211,171 L210,171 L210,168 L209,168 L209,165 L208,165 L208,163 L207,163 L207,161 L206,161 L206,159 L205,159 L205,157 L204,157 L204,155 L203,155 L203,153 L202,153 L202,151 L201,151 L201,149 L200,149 L200,148 L199,148 L199,146 L198,146 L198,145 L197,145 L197,143 L196,143 L196,142 L195,142 L195,140 L194,140 L194,137 L193,137 L193,136 L194,136 L194,131 L195,131 L195,129 L196,129 L196,128 L197,128 L197,127 L198,127 L198,126 L199,126 L199,125 L200,125 L200,124 L201,124 L201,123 L202,123 L202,122 L203,122 L203,121 L204,121 L204,120 L205,120 L205,119 L206,119 L206,118 L207,118 L207,117 L208,117 L208,116 L209,116 L209,115 L210,115 L210,114 L211,114 L211,113 L212,113 L212,112 L213,112 L213,111 L214,111 L214,110 L215,110 L215,109 L217,109 L217,108 L218,108 L218,107 L219,107 L219,105 L221,105 L221,104 L222,104 L222,102 L223,102 L223,101 L225,101 L225,100 L226,100 L226,99 L228,99 L228,98 L230,98 L230,97 L234,97 L234,98 L237,98 L237,99 L238,99 L238,100 L239,100 L239,101 L240,101 L240,102 L241,102 L241,103 L242,103 L242,104 L243,104 L243,106 L244,106 L244,108 L245,108 L245,109 L246,109 L246,111 L247,111 L247,113 L248,113 L248,114 L249,114 L249,116 L250,116 L250,118 L251,118 L251,120 L252,120 L252,122 L253,122 L253,124 L254,124 L254,126 L255,126 L255,127 L256,127 L256,129 L257,129 L257,132 L258,132 L258,134 L259,134 L259,136 L260,136 L260,138 L261,138 L261,141 L262,141 L262,143 L263,143 L263,146 L264,146 L264,149 L265,149 L265,151 L266,151 L266,154 L267,154 L267,158 L268,158 L268,161 L269,161 L269,165 L270,165 L270,168 L271,168 L271,173 L272,173 L272,177 L273,177 L273,182 L274,182 L274,190 L275,190 L275,199 L276,199 L276,230 L275,230 L275,240 L274,240 L274,247 L273,247 L273,253 L272,253 L272,258 L271,258 L271,263 L270,263 L270,267 L269,267 L269,271 L268,271 L268,274 L267,274 L267,278 L266,278 L266,280 L265,280 L265,283 L264,283 L264,286 L263,286 L263,289 L262,289 L262,291 L261,291 L261,294 L260,294 L260,296 L259,296 L259,299 L258,299 L258,301 L257,301 L257,303 L256,303 L256,305 L255,305 L255,307 L254,307 L254,309 L253,309 L253,311 L252,311 L252,313 L251,313 L251,315 L250,315 L250,317 L249,317 L249,318 L248,318 L248,320 L247,320 L247,322 L246,322 L246,323 L245,323 L245,325 L244,325 L244,326 L243,326 L243,328 L242,328 L242,330 L241,330 L241,331 L240,331 L240,332 L239,332 L239,334 L238,334 L238,335 L237,335 L237,337 L236,337 L236,338 L235,338 L235,339 L234,339 L234,341 L233,341 L233,342 L232,342 L232,343 L231,343 L231,344 L230,344 L230,346 L229,346 L229,347 L228,347 L228,348 L227,348 L227,349 L226,349 L226,350 L225,350 L225,351 L224,351 L224,353 L223,353 L223,354 L222,354 L222,355 L221,355 L221,356 L220,356 L220,357 L219,357 L219,358 L218,358 L218,359 L217,359 L217,360 L216,360 L216,361 L215,361 L215,362 L214,362 L214,363 L213,363 L213,364 L212,364 L212,365 L211,365 L211,366 L210,366 L210,367 L209,367 L209,368 L208,368 L208,369 L207,369 L207,370 L206,370 L206,371 L204,371 L204,372 L203,372 L203,373 L202,373 L202,374 L201,374 L201,375 L200,375 L200,376 L198,376 L198,377 L197,377 L197,378 L196,378 L196,379 L195,379 L195,380 L194,380 L194,381 L192,381 L192,382 L191,382 L191,383 L189,383 L189,384 L188,384 L188,385 L187,385 L187,386 L185,386 L185,387 L184,387 L184,388 L182,388 L182,389 L181,389 L181,390 L179,390 L179,391 L178,391 L178,392 L176,392 L176,393 L174,393 L174,394 L173,394 L173,395 L171,395 L171,396 L169,396 L169,397 L167,397 L167,398 L165,398 L165,399 L163,399 L163,400 L161,400 L161,401 L159,401 L159,402 L158,402 L158,403 L155,403 L155,404 L153,404 L153,405 L151,405 L151,406 L148,406 L148,407 L146,407 L146,408 L143,408 L143,409 L141,409 L141,410 L138,410 L138,411 L135,411 L135,412 L132,412 L132,413 L129,413 L129,414 L126,414 L126,415 L122,415 L122,416 L118,416 L118,417 L113,417 L113,418 L108,418 L108,419 L101,419 L101,420 L94,420 L94,421 L81,421 L81,422 L64,422 L64,421 L50,421 L50,420 L42,420 L42,419 L36,419 L36,418 L31,418 L31,417 L27,417 L27,416 L22,416 L22,415 L18,415 L18,414 L15,414 L15,413 L11,413 L11,412 L8,412 L8,411 L5,411 L5,410 L3,410 L3,409 L0,409 L0,408 L-3,408 L-3,407 L-5,407 L-5,406 L-8,406 L-8,405 L-10,405 L-10,404 L-13,404 L-13,403 L-15,403 L-15,402 L-17,402 L-17,401 L-19,401 L-19,400 L-21,400 L-21,399 L-23,399 L-23,398 L-25,398 L-25,397 L-27,397 L-27,396 L-28,396 L-28,395 L-30,395 L-30,394 L-32,394 L-32,393 L-34,393 L-34,392 L-35,392 L-35,391 L-37,391 L-37,390 L-38,390 L-38,389 L-40,389 L-40,388 L-41,388 L-41,387 L-43,387 L-43,386 L-44,386 L-44,385 L-46,385 L-46,384 L-47,384 L-47,383 L-49,383 L-49,382 L-50,382 L-50,381 L-51,381 L-51,380 L-52,380 L-52,379 L-54,379 L-54,378 L-55,378 L-55,377 L-56,377 L-56,376 L-58,376 L-58,375 L-59,375 L-59,374 L-60,374 L-60,373 L-61,373 L-61,372 L-62,372 L-62,371 L-63,371 L-63,370 L-64,370 L-64,369 L-66,369 L-66,367 L-68,367 L-68,366 L-69,366 L-69,365 L-70,365 L-70,364 L-71,364 L-71,363 L-72,363 L-72,362 L-73,362 L-73,361 L-74,361 L-74,360 L-75,360 L-75,359 L-76,359 L-76,358 L-77,358 L-77,357 L-78,357 L-78,355 L-79,355 L-79,354 L-80,354 L-80,353 L-81,353 L-81,352 L-82,352 L-82,351 L-83,351 L-83,350 L-84,350 L-84,349 L-85,349 L-85,347 L-86,347 L-86,346 L-87,346 L-87,345 L-88,345 L-88,344 L-89,344 L-89,342 L-90,342 L-90,341 L-91,341 L-91,340 L-92,340 L-92,338 L-93,338 L-93,337 L-94,337 L-94,336 L-95,336 L-95,334 L-96,334 L-96,333 L-97,333 L-97,332 L-98,332 L-98,330 L-99,330 L-99,329 L-100,329 L-100,327 L-101,327 L-101,326 L-102,326 L-102,324 L-103,324 L-103,322 L-104,322 L-104,321 L-105,321 L-105,319 L-106,319 L-106,317 L-107,317 L-107,315 L-108,315 L-108,314 L-109,314 L-109,312 L-110,312 L-110,310 L-111,310 L-111,308 L-112,308 L-112,306 L-113,306 L-113,304 L-114,304 L-114,302 L-115,302 L-115,299 L-116,299 L-116,297 L-117,297 L-117,295 L-118,295 L-118,292 L-119,292 L-119,290 L-120,290 L-120,287 L-121,287 L-121,284 L-122,284 L-122,281 L-123,281 L-123,279 L-124,279 L-124,276 L-125,276 L-125,272 L-126,272 L-126,268 L-127,268 L-127,264 L-128,264 L-128,259 L-129,259 L-129,255 L-130,255 L-130,250 L-131,250 L-131,244 L-132,244 L-132,236 L-133,236 L-133,223 L-134,223 L-134,208 L-133,208 L-133,195 L-132,195 L-132,187 L-131,187 L-131,180 L-130,180 L-130,175 L-129,175 L-129,171 L-128,171 L-128,166 L-127,166 L-127,162 L-126,162 L-126,158 L-125,158 L-125,155 L-124,155 L-124,152 L-123,152 L-123,149 L-122,149 L-122,146 L-121,146 L-121,143 L-120,143 L-120,141 L-119,141 L-119,138 L-118,138 L-118,136 L-117,136 L-117,134 L-116,134 L-116,132 L-115,132 L-115,129 L-114,129 L-114,127 L-113,127 L-113,125 L-112,125 L-112,124 L-111,124 L-111,122 L-110,122 L-110,120 L-109,120 L-109,118 L-108,118 L-108,116 L-107,116 L-107,114 L-106,114 L-106,113 L-105,113 L-105,111 L-104,111 L-104,110 L-103,110 L-103,108 L-102,108 L-102,106 L-101,106 L-101,105 L-100,105 L-100,103 L-99,103 L-99,102 L-98,102 L-98,100 L-97,100 L-97,99 L-96,99 L-96,97 L-95,97 L-95,96 L-94,96 L-94,95 L-93,95 L-93,93 L-92,93 L-92,92 L-91,92 L-91,90 L-90,90 L-90,89 L-89,89 L-89,88 L-88,88 L-88,86 L-87,86 L-87,85 L-86,85 L-86,84 L-85,84 L-85,83 L-84,83 L-84,82 L-83,82 L-83,81 L-82,81 L-82,79 L-81,79 L-81,78 L-80,78 L-80,77 L-79,77 L-79,76 L-78,76 L-78,75 L-77,75 L-77,73 L-76,73 L-76,72 L-74,72 L-74,70 L-73,70 L-73,69 L-72,69 L-72,68 L-71,68 L-71,67 L-70,67 L-70,66 L-69,66 L-69,65 L-68,65 L-68,64 L-67,64 L-67,63 L-66,63 L-66,62 L-65,62 L-65,61 L-64,61 L-64,60 L-63,60 L-63,59 L-62,59 L-62,58 L-61,58 L-61,57 L-60,57 L-60,56 L-58,56 L-58,54 L-57,54 L-57,53 L-56,53 L-56,52 L-55,52 L-55,51 L-54,51 L-54,50 L-53,50 L-53,49 L-52,49 L-52,48 L-50,48 L-50,47 L-49,47 L-49,45 L-48,45 L-48,44 L-47,44 L-47,43 L-46,43 L-46,42 L-45,42 L-45,41 L-44,41 L-44,40 L-42,40 L-42,38 L-41,38 L-41,37 L-39,37 L-39,35 L-38,35 L-38,34 L-37,34 L-37,33 L-36,33 L-36,32 L-34,32 L-34,30 L-33,30 L-33,29 L-32,29 L-32,28 L-31,28 L-31,27 L-30,27 L-30,26 L-29,26 L-29,25 L-28,25 L-28,24 L-27,24 L-27,23 L-26,23 L-26,22 L-25,22 L-25,21 L-23,21 L-23,19 L-21,19 L-21,17 L-19,17 L-19,16 L-18,16 L-18,15 L-17,15 L-17,13 L-15,13 L-15,12 L-14,12 L-14,11 L-13,11 L-13,9 L-11,9 L-11,8 L-10,8 L-10,7 L-9,7 L-9,6 L-8,6 L-8,5 L-7,5 L-7,4 L-6,4 L-6,3 L-4,3 L-4,2 L-3,2 L-3,1 L0,1 Z " fill="#00BDFE" transform="translate(409,354)"/>
<path d="M0,0 L6,0 L6,1 L8,1 L8,2 L10,2 L10,3 L11,3 L11,4 L12,4 L12,5 L14,5 L14,7 L16,7 L16,8 L17,8 L17,9 L18,9 L18,10 L19,10 L19,11 L20,11 L20,12 L21,12 L21,13 L22,13 L22,14 L23,14 L23,15 L24,15 L24,16 L25,16 L25,17 L26,17 L26,18 L27,18 L27,19 L28,19 L28,20 L29,20 L29,21 L30,21 L30,22 L31,22 L31,23 L32,23 L32,24 L33,24 L33,25 L34,25 L34,26 L35,26 L35,27 L36,27 L36,28 L37,28 L37,29 L38,29 L38,30 L39,30 L39,31 L40,31 L40,32 L41,32 L41,33 L42,33 L42,34 L43,34 L43,35 L44,35 L44,36 L45,36 L45,37 L46,37 L46,38 L47,38 L47,39 L48,39 L48,40 L49,40 L49,41 L50,41 L50,42 L51,42 L51,43 L52,43 L52,44 L53,44 L53,45 L54,45 L54,46 L55,46 L55,47 L56,47 L56,48 L57,48 L57,49 L58,49 L58,50 L59,50 L59,51 L60,51 L60,52 L61,52 L61,53 L62,53 L62,54 L63,54 L63,55 L64,55 L64,56 L65,56 L65,57 L66,57 L66,58 L67,58 L67,59 L68,59 L68,60 L69,60 L69,61 L70,61 L70,63 L72,63 L72,64 L73,64 L73,66 L75,66 L75,68 L76,68 L76,69 L78,69 L78,70 L79,70 L79,71 L80,71 L80,73 L81,73 L81,74 L83,74 L83,75 L84,75 L84,76 L85,76 L85,78 L86,78 L86,79 L88,79 L88,81 L89,81 L89,82 L90,82 L90,83 L91,83 L91,84 L93,84 L93,85 L94,85 L94,87 L96,87 L96,89 L97,89 L97,90 L99,90 L99,92 L100,92 L100,93 L102,93 L102,95 L104,95 L104,97 L105,97 L105,98 L107,98 L107,100 L108,100 L108,101 L109,101 L109,102 L110,102 L110,103 L111,103 L111,104 L112,104 L112,105 L113,105 L113,106 L114,106 L114,107 L115,107 L115,108 L116,108 L116,109 L117,109 L117,110 L118,110 L118,111 L119,111 L119,112 L120,112 L120,113 L121,113 L121,114 L122,114 L122,115 L123,115 L123,116 L124,116 L124,117 L125,117 L125,118 L126,118 L126,119 L127,119 L127,121 L128,121 L128,122 L129,122 L129,131 L128,131 L128,133 L127,133 L127,134 L126,134 L126,135 L125,135 L125,136 L124,136 L124,137 L123,137 L123,138 L122,138 L122,139 L121,139 L121,140 L120,140 L120,141 L119,141 L119,142 L118,142 L118,143 L117,143 L117,144 L116,144 L116,145 L115,145 L115,146 L114,146 L114,147 L113,147 L113,148 L112,148 L112,149 L111,149 L111,150 L110,150 L110,151 L109,151 L109,152 L108,152 L108,153 L107,153 L107,154 L106,154 L106,155 L105,155 L105,156 L104,156 L104,157 L103,157 L103,158 L102,158 L102,159 L101,159 L101,160 L100,160 L100,161 L99,161 L99,162 L98,162 L98,163 L97,163 L97,164 L96,164 L96,165 L95,165 L95,166 L94,166 L94,167 L93,167 L93,168 L92,168 L92,169 L91,169 L91,170 L90,170 L90,171 L89,171 L89,172 L88,172 L88,173 L87,173 L87,174 L86,174 L86,175 L85,175 L85,176 L84,176 L84,177 L83,177 L83,178 L82,178 L82,179 L81,179 L81,180 L80,180 L80,181 L79,181 L79,182 L78,182 L78,183 L77,183 L77,184 L76,184 L76,185 L75,185 L75,186 L74,186 L74,187 L73,187 L73,188 L72,188 L72,189 L71,189 L71,190 L70,190 L70,191 L69,191 L69,192 L68,192 L68,193 L67,193 L67,194 L66,194 L66,195 L65,195 L65,196 L64,196 L64,197 L63,197 L63,198 L62,198 L62,199 L61,199 L61,200 L60,200 L60,201 L59,201 L59,202 L58,202 L58,203 L57,203 L57,204 L56,204 L56,205 L55,205 L55,206 L54,206 L54,207 L53,207 L53,208 L52,208 L52,209 L51,209 L51,210 L50,210 L50,211 L49,211 L49,212 L48,212 L48,213 L47,213 L47,214 L46,214 L46,215 L45,215 L45,216 L44,216 L44,217 L43,217 L43,218 L41,218 L41,220 L40,220 L40,221 L39,221 L39,222 L38,222 L38,223 L37,223 L37,224 L35,224 L35,226 L34,226 L34,227 L33,227 L33,228 L32,228 L32,229 L31,229 L31,230 L30,230 L30,231 L28,231 L28,232 L27,232 L27,233 L26,233 L26,234 L25,234 L25,235 L24,235 L24,236 L23,236 L23,238 L21,238 L21,239 L20,239 L20,240 L19,240 L19,241 L18,241 L18,242 L17,242 L17,243 L16,243 L16,244 L15,244 L15,245 L14,245 L14,246 L13,246 L13,247 L12,247 L12,248 L11,248 L11,249 L10,249 L10,250 L9,250 L9,251 L7,251 L7,252 L6,252 L6,253 L-2,253 L-2,252 L-5,252 L-5,251 L-6,251 L-6,250 L-7,250 L-7,249 L-8,249 L-8,248 L-10,248 L-10,247 L-11,247 L-11,246 L-12,246 L-12,245 L-13,245 L-13,244 L-14,244 L-14,243 L-15,243 L-15,242 L-16,242 L-16,241 L-17,241 L-17,240 L-18,240 L-18,239 L-19,239 L-19,238 L-20,238 L-20,237 L-21,237 L-21,236 L-22,236 L-22,235 L-23,235 L-23,234 L-24,234 L-24,233 L-25,233 L-25,232 L-26,232 L-26,231 L-27,231 L-27,230 L-28,230 L-28,229 L-29,229 L-29,228 L-30,228 L-30,227 L-31,227 L-31,226 L-32,226 L-32,225 L-33,225 L-33,224 L-34,224 L-34,223 L-35,223 L-35,222 L-36,222 L-36,221 L-37,221 L-37,220 L-38,220 L-38,219 L-39,219 L-39,218 L-40,218 L-40,217 L-41,217 L-41,216 L-42,216 L-42,215 L-43,215 L-43,214 L-44,214 L-44,213 L-45,213 L-45,212 L-46,212 L-46,211 L-47,211 L-47,210 L-48,210 L-48,209 L-49,209 L-49,208 L-50,208 L-50,207 L-51,207 L-51,206 L-52,206 L-52,205 L-53,205 L-53,204 L-54,204 L-54,203 L-55,203 L-55,202 L-56,202 L-56,201 L-57,201 L-57,200 L-58,200 L-58,199 L-59,199 L-59,198 L-60,198 L-60,197 L-61,197 L-61,196 L-62,196 L-62,195 L-63,195 L-63,194 L-64,194 L-64,193 L-65,193 L-65,192 L-66,192 L-66,191 L-67,191 L-67,190 L-68,190 L-68,189 L-69,189 L-69,188 L-70,188 L-70,187 L-71,187 L-71,186 L-72,186 L-72,185 L-73,185 L-73,184 L-74,184 L-74,183 L-75,183 L-75,182 L-76,182 L-76,181 L-77,181 L-77,180 L-78,180 L-78,179 L-79,179 L-79,178 L-80,178 L-80,177 L-81,177 L-81,176 L-82,176 L-82,175 L-83,175 L-83,174 L-84,174 L-84,173 L-85,173 L-85,172 L-86,172 L-86,171 L-87,171 L-87,170 L-88,170 L-88,169 L-89,169 L-89,168 L-90,168 L-90,167 L-91,167 L-91,166 L-92,166 L-92,165 L-93,165 L-93,164 L-94,164 L-94,163 L-95,163 L-95,162 L-96,162 L-96,161 L-97,161 L-97,160 L-98,160 L-98,159 L-99,159 L-99,158 L-100,158 L-100,157 L-101,157 L-101,156 L-102,156 L-102,155 L-103,155 L-103,154 L-104,154 L-104,153 L-105,153 L-105,152 L-106,152 L-106,151 L-107,151 L-107,150 L-108,150 L-108,149 L-109,149 L-109,148 L-110,148 L-110,147 L-111,147 L-111,146 L-112,146 L-112,145 L-113,145 L-113,144 L-114,144 L-114,143 L-115,143 L-115,142 L-116,142 L-116,141 L-117,141 L-117,140 L-118,140 L-118,139 L-119,139 L-119,138 L-120,138 L-120,137 L-121,137 L-121,136 L-122,136 L-122,134 L-123,134 L-123,132 L-124,132 L-124,129 L-125,129 L-125,125 L-124,125 L-124,122 L-123,122 L-123,120 L-122,120 L-122,119 L-121,119 L-121,117 L-120,117 L-120,116 L-119,116 L-119,115 L-118,115 L-118,114 L-117,114 L-117,113 L-116,113 L-116,112 L-115,112 L-115,111 L-114,111 L-114,110 L-113,110 L-113,109 L-112,109 L-112,108 L-111,108 L-111,107 L-110,107 L-110,106 L-109,106 L-109,105 L-107,105 L-107,103 L-106,103 L-106,102 L-105,102 L-105,101 L-104,101 L-104,100 L-103,100 L-103,99 L-102,99 L-102,98 L-101,98 L-101,97 L-99,97 L-99,95 L-98,95 L-98,94 L-96,94 L-96,92 L-95,92 L-95,91 L-94,91 L-94,90 L-93,90 L-93,89 L-91,89 L-91,87 L-90,87 L-90,86 L-88,86 L-88,84 L-87,84 L-87,83 L-86,83 L-86,82 L-85,82 L-85,81 L-83,81 L-83,79 L-82,79 L-82,78 L-81,78 L-81,77 L-80,77 L-80,76 L-79,76 L-79,75 L-78,75 L-78,74 L-77,74 L-77,73 L-75,73 L-75,71 L-74,71 L-74,70 L-73,70 L-73,69 L-72,69 L-72,68 L-71,68 L-71,67 L-70,67 L-70,66 L-69,66 L-69,65 L-68,65 L-68,64 L-67,64 L-67,63 L-66,63 L-66,62 L-65,62 L-65,61 L-64,61 L-64,60 L-63,60 L-63,59 L-62,59 L-62,58 L-61,58 L-61,57 L-59,57 L-59,55 L-58,55 L-58,54 L-57,54 L-57,53 L-56,53 L-56,52 L-55,52 L-55,51 L-54,51 L-54,50 L-53,50 L-53,49 L-51,49 L-51,47 L-50,47 L-50,46 L-49,46 L-49,45 L-48,45 L-48,44 L-47,44 L-47,43 L-46,43 L-46,42 L-45,42 L-45,41 L-43,41 L-43,39 L-41,39 L-41,38 L-40,38 L-40,37 L-39,37 L-39,36 L-38,36 L-38,34 L-36,34 L-36,33 L-35,33 L-35,32 L-34,32 L-34,31 L-33,31 L-33,30 L-32,30 L-32,29 L-31,29 L-31,28 L-30,28 L-30,26 L-28,26 L-28,25 L-27,25 L-27,24 L-26,24 L-26,22 L-24,22 L-24,21 L-23,21 L-23,20 L-22,20 L-22,19 L-21,19 L-21,18 L-20,18 L-20,17 L-19,17 L-19,16 L-18,16 L-18,15 L-17,15 L-17,14 L-16,14 L-16,13 L-15,13 L-15,12 L-14,12 L-14,11 L-13,11 L-13,10 L-12,10 L-12,9 L-11,9 L-11,8 L-10,8 L-10,7 L-9,7 L-9,6 L-8,6 L-8,5 L-7,5 L-7,4 L-5,4 L-5,3 L-4,3 L-4,2 L-3,2 L-3,1 L0,1 Z M2,74 L2,75 L-2,75 L-2,76 L-4,76 L-4,77 L-5,77 L-5,78 L-6,78 L-6,79 L-8,79 L-8,80 L-9,80 L-9,81 L-10,81 L-10,82 L-11,82 L-11,83 L-12,83 L-12,84 L-13,84 L-13,85 L-14,85 L-14,86 L-15,86 L-15,87 L-16,87 L-16,88 L-17,88 L-17,89 L-18,89 L-18,90 L-19,90 L-19,91 L-20,91 L-20,92 L-21,92 L-21,93 L-22,93 L-22,94 L-23,94 L-23,95 L-24,95 L-24,96 L-25,96 L-25,97 L-26,97 L-26,98 L-27,98 L-27,99 L-28,99 L-28,100 L-29,100 L-29,101 L-30,101 L-30,102 L-31,102 L-31,103 L-32,103 L-32,104 L-33,104 L-33,105 L-34,105 L-34,106 L-35,106 L-35,107 L-36,107 L-36,108 L-37,108 L-37,109 L-39,109 L-39,110 L-40,110 L-40,111 L-41,111 L-41,112 L-42,112 L-42,113 L-43,113 L-43,114 L-44,114 L-44,115 L-45,115 L-45,116 L-46,116 L-46,117 L-47,117 L-47,119 L-49,119 L-49,121 L-50,121 L-50,122 L-51,122 L-51,124 L-52,124 L-52,127 L-53,127 L-53,131 L-52,131 L-52,133 L-51,133 L-51,135 L-50,135 L-50,136 L-49,136 L-49,137 L-48,137 L-48,138 L-47,138 L-47,139 L-46,139 L-46,140 L-45,140 L-45,142 L-43,142 L-43,144 L-41,144 L-41,146 L-39,146 L-39,147 L-38,147 L-38,148 L-37,148 L-37,149 L-36,149 L-36,150 L-35,150 L-35,151 L-34,151 L-34,152 L-33,152 L-33,153 L-32,153 L-32,154 L-31,154 L-31,155 L-30,155 L-30,156 L-29,156 L-29,157 L-28,157 L-28,158 L-27,158 L-27,159 L-26,159 L-26,160 L-25,160 L-25,161 L-24,161 L-24,162 L-23,162 L-23,163 L-22,163 L-22,164 L-21,164 L-21,165 L-20,165 L-20,166 L-19,166 L-19,167 L-18,167 L-18,168 L-17,168 L-17,169 L-16,169 L-16,170 L-15,170 L-15,171 L-14,171 L-14,172 L-13,172 L-13,173 L-12,173 L-12,174 L-11,174 L-11,175 L-10,175 L-10,176 L-9,176 L-9,177 L-8,177 L-8,178 L-7,178 L-7,179 L-6,179 L-6,180 L-4,180 L-4,181 L-3,181 L-3,182 L-2,182 L-2,183 L0,183 L0,184 L4,184 L4,185 L6,185 L6,184 L10,184 L10,183 L11,183 L11,182 L13,182 L13,181 L14,181 L14,180 L15,180 L15,179 L16,179 L16,178 L17,178 L17,177 L18,177 L18,176 L19,176 L19,175 L20,175 L20,174 L21,174 L21,173 L22,173 L22,172 L23,172 L23,171 L24,171 L24,170 L25,170 L25,169 L26,169 L26,168 L27,168 L27,167 L28,167 L28,166 L29,166 L29,165 L30,165 L30,164 L31,164 L31,163 L32,163 L32,162 L33,162 L33,161 L34,161 L34,160 L35,160 L35,159 L36,159 L36,158 L37,158 L37,157 L38,157 L38,156 L39,156 L39,155 L40,155 L40,154 L41,154 L41,153 L42,153 L42,152 L43,152 L43,151 L44,151 L44,150 L45,150 L45,149 L47,149 L47,148 L48,148 L48,146 L49,146 L49,145 L50,145 L50,144 L51,144 L51,143 L52,143 L52,142 L53,142 L53,141 L54,141 L54,140 L55,140 L55,139 L56,139 L56,138 L57,138 L57,136 L58,136 L58,134 L59,134 L59,125 L58,125 L58,123 L57,123 L57,122 L56,122 L56,121 L55,121 L55,120 L54,120 L54,119 L53,119 L53,118 L52,118 L52,117 L51,117 L51,116 L50,116 L50,115 L49,115 L49,114 L48,114 L48,113 L47,113 L47,112 L46,112 L46,111 L45,111 L45,110 L44,110 L44,109 L43,109 L43,108 L42,108 L42,107 L41,107 L41,106 L40,106 L40,105 L39,105 L39,104 L38,104 L38,103 L37,103 L37,102 L36,102 L36,101 L35,101 L35,100 L34,100 L34,99 L33,99 L33,98 L32,98 L32,97 L31,97 L31,96 L30,96 L30,95 L29,95 L29,94 L28,94 L28,93 L26,93 L26,91 L24,91 L24,89 L22,89 L22,88 L21,88 L21,87 L20,87 L20,86 L19,86 L19,85 L18,85 L18,83 L16,83 L16,82 L15,82 L15,81 L14,81 L14,80 L13,80 L13,79 L12,79 L12,78 L10,78 L10,77 L9,77 L9,76 L7,76 L7,75 L4,75 L4,74 Z " fill="#00BDFE" transform="translate(570,193)"/>
<path d="M0,0 L2,0 L2,1 L0,1 Z " fill="#08B7F5" transform="translate(432,771)"/>
<path d="M0,0 L2,0 L2,1 L0,1 Z " fill="#04BBF9" transform="translate(513,712)"/>
<path d="M0,0 L1,0 L1,2 L0,2 Z " fill="#07BCF9" transform="translate(576,446)"/>
<path d="M0,0 L2,0 L2,1 L0,1 Z " fill="#03BCFB" transform="translate(484,367)"/>
<path d="M0,0 L1,0 L1,1 L0,1 Z " fill="#02B6F3" transform="translate(505,775)"/>
<path d="M0,0 L1,0 L1,1 L0,1 Z " fill="#06BBF9" transform="translate(537,704)"/>
<path d="M0,0 L1,0 L1,1 L0,1 Z " fill="#05BAFA" transform="translate(553,696)"/>
<path d="M0,0 L1,0 L1,1 L0,1 Z " fill="#07B2F0" transform="translate(317,695)"/>
<path d="M0,0 L1,0 L1,1 L0,1 Z " fill="#06B5F3" transform="translate(316,694)"/>
<path d="M0,0 L1,0 L1,1 L0,1 Z " fill="#0AB5F2" transform="translate(314,692)"/>
<path d="M0,0 L1,0 L1,1 L0,1 Z " fill="#0AB5F2" transform="translate(298,667)"/>
<path d="M0,0 L1,0 L1,1 L0,1 Z " fill="#09B6F4" transform="translate(282,628)"/>
<path d="M0,0 L1,0 L1,1 L0,1 Z " fill="#08B4F2" transform="translate(281,624)"/>
<path d="M0,0 L1,0 L1,1 L0,1 Z " fill="#08B8F2" transform="translate(684,597)"/>
<path d="M0,0 L1,0 L1,1 L0,1 Z " fill="#0CB5F0" transform="translate(275,597)"/>
<path d="M0,0 L1,0 L1,1 L0,1 Z " fill="#08B8F6" transform="translate(682,529)"/>
<path d="M0,0 L1,0 L1,1 L0,1 Z " fill="#08B8F6" transform="translate(616,529)"/>
<path d="M0,0 L1,0 L1,1 L0,1 Z " fill="#08B6F6" transform="translate(340,523)"/>
<path d="M0,0 L1,0 L1,1 L0,1 Z " fill="#06B8F2" transform="translate(665,480)"/>
<path d="M0,0 L1,0 L1,1 L0,1 Z " fill="#06BCF8" transform="translate(613,472)"/>
<path d="M0,0 L1,0 L1,1 L0,1 Z " fill="#06B9F4" transform="translate(658,467)"/>
<path d="M0,0 L1,0 L1,1 L0,1 Z " fill="#08BAF5" transform="translate(645,450)"/>
<path d="M0,0 L1,0 L1,1 L0,1 Z " fill="#04BCFA" transform="translate(573,447)"/>
<path d="M0,0 L1,0 L1,1 L0,1 Z " fill="#05BCFA" transform="translate(404,447)"/>
<path d="M0,0 L1,0 L1,1 L0,1 Z " fill="#03BEF9" transform="translate(421,439)"/>
<path d="M0,0 L1,0 L1,1 L0,1 Z " fill="#04BBFA" transform="translate(461,431)"/>
<path d="M0,0 L1,0 L1,1 L0,1 Z " fill="#07B4F4" transform="translate(357,400)"/>
<path d="M0,0 L1,0 L1,1 L0,1 Z " fill="#07B6F4" transform="translate(373,384)"/>
<path d="M0,0 L1,0 L1,1 L0,1 Z " fill="#02BCFD" transform="translate(483,365)"/>
<path d="M0,0 L1,0 L1,1 L0,1 Z " fill="#06B8F5" transform="translate(397,360)"/>
<path d="M0,0 L1,0 L1,1 L0,1 Z " fill="#01BCFA" transform="translate(477,359)"/>
<path d="M0,0 L1,0 L1,1 L0,1 Z " fill="#04BCFD" transform="translate(624,314)"/>
<path d="M0,0 L1,0 L1,1 L0,1 Z " fill="#05B4F3" transform="translate(461,296)"/>
<path d="M0,0 L1,0 L1,1 L0,1 Z " fill="#04B5F4" transform="translate(469,288)"/>
<path d="M0,0 L1,0 L1,1 L0,1 Z " fill="#05B6F3" transform="translate(485,272)"/>
<path d="M0,0 L1,0 L1,1 L0,1 Z " fill="#00C1FC" transform="translate(565,271)"/>
<path d="M0,0 L1,0 L1,1 L0,1 Z " fill="#08B0E9" transform="translate(577,192)"/>
</svg>
